<svg xmlns="http://www.w3.org/2000/svg" viewBox="0 0 100 100"><rect width="100" height="100" rx="22" fill="#0B0B0C"/><rect x="17.05" y="17.05" width="12.80" height="12.80" rx="3.40" fill="#F2F2F3"/><rect x="34.75" y="17.05" width="12.80" height="12.80" rx="3.40" fill="#fff" opacity=".1"/><rect x="52.45" y="17.05" width="12.80" height="12.80" rx="3.40" fill="#F2F2F3"/><rect x="70.15" y="17.05" width="12.80" height="12.80" rx="3.40" fill="#fff" opacity=".1"/><rect x="17.05" y="34.75" width="12.80" height="12.80" rx="3.40" fill="#fff" opacity=".1"/><rect x="34.75" y="34.75" width="12.80" height="12.80" rx="3.40" fill="#F2F2F3"/><rect x="52.45" y="34.75" width="12.80" height="12.80" rx="3.40" fill="#F2F2F3"/><rect x="70.15" y="34.75" width="12.80" height="12.80" rx="3.40" fill="#fff" opacity=".1"/><rect x="17.05" y="52.45" width="12.80" height="12.80" rx="3.40" fill="#F2F2F3"/><rect x="34.75" y="52.45" width="12.80" height="12.80" rx="3.40" fill="#fff" opacity=".1"/><rect x="52.45" y="52.45" width="12.80" height="12.80" rx="3.40" fill="#fff" opacity=".1"/><rect x="70.15" y="52.45" width="12.80" height="12.80" rx="3.40" fill="#F2F2F3"/><rect x="17.05" y="70.15" width="12.80" height="12.80" rx="3.40" fill="#F2F2F3"/><rect x="34.75" y="70.15" width="12.80" height="12.80" rx="3.40" fill="#F2F2F3"/><rect x="52.45" y="70.15" width="12.80" height="12.80" rx="3.40" fill="#F2F2F3"/><rect x="70.15" y="70.15" width="12.80" height="12.80" rx="3.40" fill="#F2A54A"/></svg>